<svg width="29" height="29" viewBox="0 0 29 29" fill="none" xmlns="http://www.w3.org/2000/svg">
<g id="Buy" clip-path="url(#clip0_1_37)">
<g id="Iconly/Light-Outline/Buy">
<g id="Buy_2">
<path id="Combined-Shape" fill-rule="evenodd" clip-rule="evenodd" d="M9.11763 24.11C9.98042 24.11 10.6825 24.8109 10.6825 25.6737C10.6825 26.5365 9.98042 27.2386 9.11763 27.2386C8.25484 27.2386 7.55397 26.5365 7.55397 25.6737C7.55397 24.8109 8.25484 24.11 9.11763 24.11ZM22.7486 24.11C23.6126 24.11 24.3147 24.8109 24.3147 25.6737C24.3147 26.5365 23.6126 27.2386 22.7486 27.2386C21.8859 27.2386 21.185 26.5365 21.185 25.6737C21.185 24.8109 21.8859 24.11 22.7486 24.11ZM3.95079 3.63698L6.46425 4.072C6.86906 4.1433 7.1772 4.47923 7.21224 4.89008L7.49621 8.27479L8.55217 8.27524C8.72448 8.27532 8.89496 8.2754 9.06364 8.27547L11.0023 8.27639C11.1568 8.27647 11.3096 8.27655 11.4607 8.27663L13.6012 8.2778C13.7357 8.27788 13.8686 8.27796 13.9998 8.27804L15.4998 8.27899C15.6187 8.27907 15.736 8.27915 15.8518 8.27923L17.1712 8.28021C17.2753 8.28029 17.3781 8.28037 17.4794 8.28045L18.6298 8.28144C18.7202 8.28152 18.8094 8.28161 18.8972 8.28169L19.6533 8.28244C19.7335 8.28253 19.8125 8.28261 19.8902 8.28269L20.7658 8.28371C20.8341 8.28379 20.9012 8.28388 20.9672 8.28397L21.7065 8.285C21.7638 8.28508 21.8201 8.28517 21.8753 8.28526L22.3451 8.28604C22.3944 8.28613 22.4426 8.28622 22.4899 8.28631L23.0133 8.28737C23.0533 8.28746 23.0925 8.28754 23.1308 8.28763L23.4529 8.28844C23.4862 8.28853 23.5188 8.28862 23.5505 8.28871L23.8958 8.2898C23.9217 8.28989 23.9469 8.28998 23.9714 8.29007L24.1742 8.2909C24.1948 8.29099 24.2148 8.29108 24.2341 8.29118L24.4392 8.29229C24.4541 8.29239 24.4685 8.29248 24.4824 8.29258L24.5942 8.29342C24.6052 8.29352 24.6158 8.29361 24.6259 8.29371L24.7064 8.29457C24.7142 8.29466 24.7216 8.29476 24.7287 8.29485L24.7834 8.29572C24.7886 8.29582 24.7934 8.29592 24.798 8.29601L24.8327 8.29689C24.8358 8.29699 24.8388 8.29708 24.8416 8.29718L24.8667 8.29837C24.8682 8.29847 24.8696 8.29856 24.8709 8.29866C24.8827 8.29976 24.8844 8.29996 24.8862 8.30016C25.5592 8.39804 26.1514 8.74969 26.555 9.29105C26.9586 9.8312 27.1277 10.497 27.0311 11.1641L25.8843 19.0887C25.668 20.5968 24.3581 21.7338 22.8355 21.7338H9.63869C8.04724 21.7338 6.69988 20.4916 6.57059 18.9026L5.4637 5.73838L3.64265 5.42419C3.14842 5.33719 2.81853 4.86954 2.90312 4.37531C2.99012 3.88108 3.46744 3.55965 3.95079 3.63698ZM8.30974 10.0878L7.64847 10.0874L8.37713 18.754C8.4303 19.421 8.97528 19.9213 9.64111 19.9213H22.8331C23.4627 19.9213 24.0004 19.4524 24.0898 18.8301L25.2378 10.9042C25.2644 10.7157 25.2173 10.5272 25.1025 10.375C24.9889 10.2215 24.8221 10.1224 24.6336 10.0958C24.6249 10.0962 24.604 10.0965 24.5716 10.0967L24.4402 10.0975C24.4127 10.0976 24.3824 10.0977 24.3495 10.0978L23.665 10.0989C23.6072 10.0989 23.5472 10.0989 23.4849 10.099L21.8753 10.0989C21.7855 10.0989 21.694 10.0988 21.6009 10.0988L19.764 10.0977C19.6539 10.0976 19.5427 10.0975 19.4303 10.0974L18.3909 10.0966C18.2725 10.0965 18.1533 10.0964 18.0332 10.0963L16.9322 10.0953C16.8079 10.0952 16.683 10.0951 16.5575 10.095L15.7991 10.0943C15.6719 10.0942 15.5443 10.094 15.4164 10.0939L14.2591 10.0928C14.1301 10.0927 14.0009 10.0926 13.8718 10.0925L13.0977 10.0918C12.9688 10.0916 12.8401 10.0915 12.7117 10.0914L11.9441 10.0907C11.8168 10.0906 11.6899 10.0905 11.5634 10.0904L10.439 10.0894C10.3158 10.0893 10.1933 10.0892 10.0716 10.0891L8.65058 10.088C8.53591 10.0879 8.42227 10.0879 8.30974 10.0878ZM20.8923 12.7414C21.3926 12.7414 21.7986 13.1474 21.7986 13.6477C21.7986 14.1479 21.3926 14.554 20.8923 14.554H17.5427C17.0412 14.554 16.6364 14.1479 16.6364 13.6477C16.6364 13.1474 17.0412 12.7414 17.5427 12.7414H20.8923Z" fill="white"/>
</g>
</g>
<circle id="Ellipse 2" cx="25.5681" cy="8.01378" r="3.43437" fill="#A8E910"/>
</g>
<defs>
<clipPath id="clip0_1_37">
<rect width="29.0014" height="29.0014" fill="white"/>
</clipPath>
</defs>
</svg>
