<svg width="94" height="94" viewBox="0 0 94 94" fill="none" xmlns="http://www.w3.org/2000/svg">
<g id="simple-icons:nike">
<path id="Vector" d="M94 30.55L25.2312 59.831C19.5285 62.2437 14.7384 63.4539 10.8648 63.4539C6.47817 63.4539 3.29392 61.9186 1.31992 58.844C0.0783366 56.87 -0.285913 54.3672 0.223253 51.3318C0.73242 48.2964 2.08759 45.0652 4.28092 41.6263C6.11 38.8455 9.10625 35.1912 13.2775 30.6597C11.8627 32.8869 10.8252 35.3325 10.2068 37.8977C9.11017 42.5781 10.0972 46.013 13.1678 48.2063C14.6288 49.2286 16.638 49.7417 19.1995 49.7417C21.244 49.7417 23.547 49.4127 26.1085 48.7547L94 30.55Z" fill="#FAFF23"/>
</g>
</svg>
